<svg xmlns="http://www.w3.org/2000/svg" viewBox="215 320 600 400"><path fill="#4aa9f3" d="M600.181 591.157c-11.667-18.355-23.36-36.692-34.993-55.068-14.24-22.496-28.428-45.026-42.646-67.537-.59-.936-1.25-1.829-1.57-3.06.886-.385 1.465-.451 2.068-.46.026.058-.066-.018-.097-.398-2.996-5.637-1.081-9.986 1.943-14.612 3.702-5.66 6.678-11.795 10.073-18.08 4.302-7.229 8.5-14.103 12.94-21.15 4.587-7.347 8.932-14.52 13.555-21.883 3.441-3.272 6.384-6.631 9.82-9.37 4.688-3.735 11.732-1.132 16.234 5.902 10.653 16.644 21.182 33.367 31.785 50.043.7 1.101 1.593 2.08 2.396 3.114l1.32-.654-1.891-7.855c8.317 12.988 16.63 25.978 24.953 38.963 5.227 8.155 10.466 16.302 15.494 25.03 1.222 2.363 2.65 4.149 4.077 5.934 0 0 .21.223.15.639 1.766 4.445 3.592 8.474 5.418 12.503l-2.14 1.49-2.51-4.954-1.766 1.638c2.341 2.629 4.78 5.18 6.976 7.926.848 1.061 1.143 2.565 1.281 3.787-6.087-2.707-11.722-5.431-17.459-7.922-3.475-1.51-7.62-1.942-10.588-4.077-27.542-19.815-57.638-33.765-91.043-40.123-6.651-1.265-13.52-1.448-20.303-1.936-3.258-.235-4.209 1.525-2.862 4.443.626 1.356 1.337 2.691 2.165 3.931 6.86 10.261 13.886 20.415 20.606 30.767 5.978 9.208 11.613 18.638 17.43 27.951 8.337 13.348 16.7 26.678 25.22 40.309 2.593 4.646 5.018 8.999 7.62 13.67z"/><path fill="#0b41ac" d="M744.614 624.543c7.1 10.935 14.209 21.864 21.296 32.808 3.687 5.692 7.333 11.41 11 17.116 1.987 3.091 1.129 4.62-2.529 4.615-4.15-.006-8.3-.012-13.149-.439-1.344-.56-1.99-.822-2.635-.82-21.327.036-42.654.082-63.98.2-1.23.006-2.457.627-3.685.962-23.562 1.017-41.706-8.052-53.652-28.746-2.482-4.3-5.146-8.495-7.59-13.164a10.2 10.2 0 0 1 3.516 2.418c1.212 1.28 2.229 2.746 3.33 4.131-.519-4.813-1.89-8.997-2.991-13.251-.347-1.341-.542-3.66.174-4.18 3.519-2.552 7.232-4.93 11.143-6.818 3.091-1.492 6.532-2.323 9.881-3.203 8.998-2.362 17.622-6.568 27.383-5.206 3.068.428 6.257.078 9.387-.032 7.615-.268 15.227-.808 22.842-.832 4.148-.014 7.806 1.247 11.143 4.477 3.546 3.432 8.254 5.663 12.635 8.705 2.854 3.732 5.528 7.178 8.202 10.623l.839-.756z"/><path fill="#4e5056" d="M353.01 527.003c4.661-7.574 9.226-15.21 14.009-22.706 6.28-9.845 12.733-19.581 19.434-29.174-.517 2.639-1.356 5.088-2.195 7.537 4.348-4.686 7.885-9.664 11.26-14.749 3.303-4.974 5.953-10.47 9.776-14.986 4.515-5.332 10.119-9.725 15.006-14.763 7.697-7.935 14.99-16.27 22.842-24.045 5.278-5.227 11.141-5.741 17.197-1.574 8.63 5.94 17.152 6.637 26.364 1.554.968-.534 3.824.58 4.584 1.732 5.213 7.912 10.184 15.99 15.013 24.144.836 1.41 1.085 3.515.818 5.172a342 342 0 0 1-4.518 22.917c-2.444.573-4.52 1.097-7.037 1.69-3.062.367-5.747.401-8.295 1.008-10.126 2.414-20.208 5.007-30.481 7.191-1.324-.899-2.418-1.684-3.63-1.974-6.77-1.618-13.646-2.843-20.34-4.72-9.37-2.63-18.456-1.243-26.41 3.382-14.631 8.509-26.216 20.755-36.347 34.144-6.58 8.697-12.04 18.24-18.412 27.493-.68.16-.95.23-1.129-.112.892-3.328 1.691-6.245 2.49-9.161m26-37.46-1.567 3.375 1.126.496 3.672-5.607-.882-.649a38 38 0 0 0-2.35 2.386m-3.546 9.036.207-2.142c-.312.067-.899.153-.896.198.051.741.177 1.477.69 1.944m8.058-13.092s-.053.021 0 0"/><path fill="#0b5ec7" d="M737.953 622.997c-4.2-2.755-8.909-4.986-12.455-8.418-3.337-3.23-6.995-4.49-11.143-4.477-7.615.024-15.227.564-22.842.832-3.13.11-6.319.46-9.387.032-9.761-1.362-18.385 2.844-27.383 5.206-3.35.88-6.79 1.71-9.88 3.203-3.912 1.887-7.625 4.266-11.144 6.818-.716.52-.521 2.839-.174 4.18 1.1 4.254 2.472 8.438 2.991 13.251-1.101-1.385-2.118-2.851-3.33-4.131-1.006-1.061-2.244-1.903-3.647-2.733-4.703-6.84-9.138-13.79-13.345-21.062 1.442.339 2.656.999 5.432 2.509-2.138-9.306-3.95-17.198-5.733-25.482.265-4.435 2.758-6.385 6.265-7.886 2.312-.99 5.595-2.559 6.082-4.47 2.058-8.083 8.771-8.875 14.893-10.234 9.608-2.132 19.374.4 29.38-1.54 10.818-2.096 21.472 2.953 29.907 10.779 4.46 4.137 8.572 8.65 13.042 12.775 1.085 1.003 2.962 1.148 4.659 1.991a265 265 0 0 0 4.873 5.882c.002-.033-.063-.043-.041.271.069.73.116 1.145.136 1.967.09 1.553-.181 2.973.398 3.796 1.954 2.78 4.302 5.278 6.325 8.014 2.144 2.899 4.089 5.945 6.12 8.927"/><path fill="#61697a" d="M502.968 468.014c1.41-7.619 2.919-15.221 4.15-22.869.267-1.657.018-3.761-.818-5.172-4.829-8.154-9.8-16.232-15.013-24.144-.76-1.153-3.616-2.266-4.584-1.732-9.212 5.083-17.734 4.387-26.364-1.554-6.056-4.167-11.919-3.653-17.197 1.574-7.851 7.775-15.145 16.11-22.842 24.045-4.887 5.038-10.49 9.431-15.006 14.763-3.823 4.516-6.473 10.012-9.775 14.986-3.376 5.085-6.913 10.063-11.26 14.75.838-2.45 1.677-4.9 2.468-7.741 6.232-10.45 12.512-20.507 19.298-30.536 1.68 2.652 2.81 2.31 4.203.113 3.654-5.761 7.264-11.558 11.153-17.16 5.311-7.652 10.73-15.2 16.573-22.505 6.377-7.972 13.571-13.588 21.967-18.397 2.967-1.7 6.293-2.774 9.74-3.934 3.634 4.45 6.982 8.699 10.348 13.27 3.172 5.597 6.327 10.872 9.482 16.148l2.22-.694c-.14-2.758-.084-5.545-.462-8.27-.878-6.328 2.02-9.934 8.439-9.88 2.284.018 4.625.38 6.833.979 8.222 2.229 16.496 4.342 24.55 7.088 3.3 1.125 6.056 3.807 9.128 5.668 2.432 1.474 4.968 2.777 7.458 4.155-4.198 6.874-8.396 13.748-13.008 21.006-5.178 6.544-9.942 12.702-14.95 18.66-2.959-2.298-5.671-4.396-8.997-6.968 0 1.668-.2 2.32.03 2.56 6.781 7.094 4.844 13.592-1.267 19.852-.565.58-1.003 1.284-1.915 1.94-1.804.007-3.193.003-4.582-.001m-96.507-18.527s.04-.017 0 0"/><path fill="#8d9fbe" d="M479.991 395.45c-3.348-4.25-6.696-8.5-10.419-13.245-7.734-9.176-14.414-3.654-21.949 1.604l3.31-7.847s.028-.001.372-.051c1.063-1.087 1.783-2.124 2.502-3.16 9.198-10.45 21.605-13.61 34.63-14.063 17.969-.625 35.985-.72 53.953-.16 12.88.401 26.253 1.287 36.405 10.591 6.112 5.602 11.385 12.349 16.055 19.245 9.055 13.372 17.42 27.211 26.169 41.291.729 3.052 1.359 5.67 1.99 8.289l-1.32.654c-.803-1.035-1.696-2.013-2.396-3.114-10.603-16.676-21.132-33.399-31.785-50.043-4.502-7.034-11.546-9.637-16.233-5.902-3.437 2.739-6.38 6.098-10.173 9.273-10.348-8.195-22.939-8.773-34.445-11.458-9.415-2.197-19.614-1.01-29.463-1.377-6.488-.241-11.527 2.325-15.115 7.687-.942 1.408-2.076 2.938-2.29 4.524-.32 2.368.098 4.836.202 7.262"/><path fill="#34353b" d="M352.69 527.131c-.48 2.788-1.28 5.705-2.26 9.088-.4.62-.64.727-1.097.9-.235.538-.269.964-.252 1.744-.295 1.433-.429 2.649-1.02 3.571-5.429 8.467-10.99 16.848-16.379 25.34-1.194 1.882-1.855 4.102-3.038 6.359-4.469 6.46-8.742 12.676-12.827 19.014-3.108 4.824-5.976 9.804-9.226 14.917-5.308 8.538-9.795 17.274-15.54 25.085-4.785 6.507-9.243 12.732-10.818 20.918-1.19 6.176.443 11.473 6.527 12.843 8.538 1.923 17.294 3.643 26 3.88 14.478.395 29.055.264 43.473-.991 13.926-1.213 27.086-5.224 35.173-18.374 2.16-3.511 4.93-6.644 7.15-10.123 10.717-16.79 21.37-33.62 31.99-50.472 7.78-12.346 15.41-24.786 23.222-37.111 9.139-14.42 18.398-28.764 27.615-43.134 1.195-1.862 2.447-3.687 3.632-5.226-.116 1.175-.19 2.047-.296 3.273l7.928-6.764c-6.505 10.406-12.963 20.843-19.53 31.21-6.48 10.226-13.104 20.36-19.605 30.573-12.281 19.292-24.503 38.623-36.782 57.917-6.322 9.933-12.793 19.773-19.06 29.741-13.29 21.134-32.442 29.884-57.23 26.858 5.187-1.057 10.551-1.698 15.916-2.34l-.054-.795c-22.12 0-44.24 0-66.816-.032-4.43-.17-8.406-.306-12.422-.77-.61-1.117-1.073-2.014-1.762-2.674-5.386-5.159-5.333-5.107-1.681-11.608 1.005-1.789 1.478-3.877 2.46-6.549l-5.83 3.704c12.944-20.654 25.84-41.338 38.846-61.954 13.881-22.004 27.863-43.944 41.81-65.907.44-.692.974-1.323 1.783-2.111m13.689 146.68.337-1.076c-.156-.026-.329-.11-.467-.07-1.885.531-3.766 1.08-5.649 1.624l.164.743c1.685-.335 3.37-.67 5.615-1.222"/><path fill="#2d74c2" d="M738.133 623.284c-2.212-3.269-4.157-6.315-6.301-9.214-2.023-2.736-4.371-5.235-6.325-8.014-.58-.823-.307-2.243-.163-3.688.822-.335 1.38-.372 1.939-.41l-2.332-1.979s.065.01.04-.332c-6.954-11.765-13.837-23.216-20.89-34.562-.65-1.044-2.383-1.415-3.838-2.328-5.496-5.08-7.551-11.986-11.436-17.714-5.007-7.384-10.234-14.619-15.366-21.917-.548-1.303-.843-2.807-1.691-3.868-2.196-2.746-4.635-5.297-6.976-7.926l1.767-1.638 2.508 4.954 2.14-1.49c-1.825-4.029-3.651-8.058-5.397-12.351a2891 2891 0 0 1 28.22 43.314c6.818 10.678 13.387 21.514 20.176 32.21 6.616 10.424 13.37 20.76 20.119 31.47.23.505.405.676.58.847 0 0 .212.329.232.588.02.26.235.474.235.474.133.244.266.488.71 1.172.43.574.577.652.755.674.104.222.208.444.372 1.36 1.785 3.188 3.511 5.683 5.237 8.178.609.808 1.218 1.617 1.823 2.785-.004.36-.078.487-.078.487l.3-.127s.186.104.153.204c.821 2.97 1.674 5.838 2.528 8.708l-.84.756c-2.673-3.445-5.347-6.891-8.2-10.623M615.883 593.117l5.763 25.09c-2.776-1.51-3.99-2.17-5.523-2.842-5.47-7.872-10.623-15.733-15.858-23.9.962-.623 2.008-.937 3.573-1.408-2.603-4.67-5.028-9.023-7.487-13.998-1.57-4.092-2.724-7.8-4.716-10.985-4.407-7.044-2.47-14.386 6.373-18.818l1.121 9.664c.206 1.778.128 3.648.671 5.317 1.437 4.416 2.84 8.887 4.81 13.075 3.118 6.623 4.386 14.425 11.273 18.805m-10.37 1.345s.013.042 0 0"/><path fill="#6d7c99" d="M450.592 376c-.591 2.17-1.523 4.38-2.969 7.809 7.535-5.258 14.215-10.78 21.664-1.804-3.073 1.656-6.399 2.73-9.366 4.43-8.396 4.809-15.59 10.425-21.967 18.397-5.843 7.304-11.262 14.853-16.573 22.505-3.889 5.602-7.5 11.399-11.153 17.16-1.394 2.198-2.523 2.539-3.915-.294 11.58-18.91 23.326-37.643 35.22-56.282 2.637-4.132 5.799-7.93 9.06-11.92"/><path fill="#61697a" d="M289.94 675.032h66.362l.054.796c-5.365.64-10.73 1.282-16.373 2.159a5331 5331 0 0 1-77.469.944c-1.251.006-2.51-1.551-3.21-2.59 10.582-.575 20.61-.942 30.637-1.309"/><path fill="#4e5056" d="M492.865 501.593c-2.72 2.41-5.222 4.544-8.146 7.039.105-1.226.18-2.098.503-3.524 1.088-2.073 1.929-3.591 3.058-5.288 1.19-1.558 2.086-2.94 2.993-4.313 3.451-5.229 6.906-10.455 10.617-15.496 1.377-.452 2.613-.948 3.589-1.76 1.579-1.313 2.986-2.833 4.466-4.266-3.72 6.248-7.394 12.524-11.178 18.733-1.787 2.932-3.784 5.737-5.902 8.875M270.176 657.324c1.662-1.23 3.25-2.238 5.905-3.925-.982 2.672-1.455 4.76-2.46 6.55-3.652 6.5-3.705 6.448 1.68 11.607.69.66 1.153 1.557 1.308 2.782-4.555-.163-9.79 3.024-12.362-3.013l-4.539 3.462c2.6-4.44 5.201-8.88 8.324-13.626 1.012-1.256 1.5-2.206 1.989-3.157 0 0 .08-.459.155-.68m-3.583 11.597-.223.064s.219.074.223-.064"/><path fill="#8d9fbe" d="M519.944 450.832c4.763-6.159 9.527-12.317 14.6-18.505-2.98 5.9-5.956 12.035-9.658 17.695-3.024 4.626-4.94 8.975-1.931 14.604.043.371.06.348.06.348-.578.067-1.157.133-2.01.187-.952-.326-1.627-.64-2.757-1.467.263-4.63.98-8.746 1.696-12.862"/><path fill="#6d7c99" d="M519.698 450.632c-.47 4.316-1.187 8.432-1.79 12.9-.867 1.376-1.847 2.4-3.46 3.586-2.707 1.065-4.78 1.966-6.765 2.542.154-.768.218-1.212.283-1.655.496-.646.934-1.35 1.5-1.93 6.11-6.26 8.047-12.758 1.265-19.852-.23-.24-.029-.892-.029-2.56 3.326 2.572 6.038 4.67 8.996 6.969"/><path fill="#8d9fbe" d="M691.408 679.007c.752-.357 1.979-.978 3.209-.984 21.326-.118 42.653-.164 63.98-.2.645-.002 1.291.26 2.17.765-22.806.39-45.845.416-69.36.419"/><path fill="#61697a" d="M507.594 469.986c2.074-.902 4.147-1.803 6.615-2.676-1.027 2.063-2.447 4.097-4.065 6.403-1.679 1.705-3.086 3.225-4.665 4.538a6.33 6.33 0 0 1-3.483 1.417c1.765-3.58 3.682-6.631 5.598-9.682"/><path fill="#6d7c99" d="M259.503 674.921c1.718-1.289 3.232-2.443 4.744-3.596 2.571 6.037 7.807 2.85 12.403 3.342 4.43.027 8.405.164 12.836.333-9.572.4-19.6.766-30.033 1.047-.502-.438-.418-.74.05-1.126"/><path fill="#0b41ac" d="M742.399 620.772a68.5 68.5 0 0 1-5.052-7.515c1.719 2.163 3.36 4.679 5.052 7.515"/><path fill="#2d74c2" d="M665.597 499.699a34.6 34.6 0 0 1-4.071-5.262c1.453 1.5 2.739 3.222 4.07 5.262"/><path fill="#6d7c99" d="M453.488 372.833c-.4.954-1.12 1.99-2.184 3.063.392-.97 1.128-1.974 2.184-3.063"/><path fill="#34353b" d="M269.746 658.166c-.213.789-.702 1.739-1.486 2.75.207-.822.71-1.706 1.486-2.75"/><path fill="#0b41ac" d="M734.95 608.537c-.218-.06-.393-.23-.414-.419.154-.017.457.308.413.419M735.462 609.638c-.088.072-.303-.142-.267-.214.035-.071.354.142.267.214M736.827 611.41c-.166.124-.313.046-.479-.205.173-.198.345-.14.48.205M744.468 624.253a8 8 0 0 0-.275.113s.074-.127.195-.125c.12.003.055.026.08.012"/><path fill="#0a7fe7" d="M615.913 592.725c-6.917-3.988-8.185-11.79-11.303-18.413-1.97-4.188-3.373-8.66-4.81-13.075-.543-1.669-.465-3.539-.67-5.317l-1.122-9.664c-8.844 4.432-10.78 11.774-6.373 18.818 1.992 3.185 3.147 6.893 4.548 10.692-8.485-13.01-16.85-26.34-25.186-39.687-5.817-9.313-11.452-18.743-17.43-27.951-6.72-10.352-13.745-20.506-20.606-30.767-.828-1.24-1.54-2.575-2.165-3.93-1.347-2.919-.396-4.679 2.862-4.444 6.783.488 13.652.67 20.303 1.936 33.405 6.358 63.501 20.308 91.043 40.123 2.967 2.135 7.113 2.568 10.588 4.077 5.737 2.49 11.372 5.215 17.46 7.922 5.541 7.38 10.768 14.614 15.775 21.998 3.885 5.728 5.94 12.635 11.58 18.06 1.123 1.85 1.837 3.15 2.636 4.395 5.628 8.786 11.274 17.56 16.914 26.34-1.513-.54-3.39-.686-4.475-1.689-4.47-4.126-8.582-8.638-13.042-12.775-8.435-7.826-19.09-12.875-29.908-10.778-10.005 1.939-19.77-.593-29.38 1.54-6.12 1.358-12.834 2.15-14.892 10.233-.487 1.911-3.77 3.48-6.082 4.47-3.507 1.5-6 3.451-6.265 7.886m-30.074-39.46.344-.476c-.168.1-.336.2-.344.477"/><path fill="#6d7c99" d="M480.009 395.77c-.122-2.746-.54-5.214-.22-7.582.214-1.586 1.348-3.116 2.29-4.524 3.588-5.362 8.627-7.928 15.115-7.687 9.85.366 20.048-.82 29.463 1.377 11.506 2.685 24.097 3.263 34.166 11.648-3.992 7.27-8.337 14.443-12.924 21.79-2.732-1.205-5.268-2.508-7.7-3.982-3.072-1.861-5.827-4.543-9.129-5.668-8.053-2.746-16.327-4.86-24.55-7.088-2.207-.599-4.548-.961-6.832-.98-6.418-.053-9.317 3.553-8.44 9.88.38 2.726.323 5.513.463 8.271l-2.22.694c-3.155-5.276-6.31-10.551-9.482-16.148"/><path fill="#8d9fbe" d="M522.986 465.006c-.012.008.08.084.054.026-.025-.058-.042-.035-.054-.026"/><path fill="#1b1c21" d="M487.991 500c-.84 1.517-1.68 3.035-2.728 4.804-1.433 2.094-2.685 3.919-3.88 5.78-9.217 14.371-18.476 28.715-27.615 43.135-7.812 12.325-15.443 24.765-23.223 37.11a10370 10370 0 0 1-31.989 50.473c-2.22 3.479-4.99 6.612-7.15 10.123-8.087 13.15-21.247 17.161-35.173 18.374-14.418 1.255-28.995 1.386-43.474.991-8.705-.237-17.461-1.957-25.999-3.88-6.084-1.37-7.716-6.667-6.527-12.843 1.575-8.186 6.033-14.41 10.819-20.918 5.744-7.811 10.231-16.547 15.57-24.672-.251 2.454-.641 4.755-1.392 6.933-3.517 10.196-7.597 20.225-10.569 30.574-2.434 8.477-.31 11.057 8.079 13.196 15.436 3.937 31.06 1.961 46.55.997 6.599-.411 13.568-2.498 19.43-5.598 15.059-7.962 25.67-20.597 33.77-35.45 1.668-3.057 3.786-5.87 5.73-8.772 6.003-8.958 12.25-17.763 17.974-26.895 6.326-10.092 11.796-20.733 18.35-30.665 6.175-9.356 11.4-18.954 13.792-29.986.736-3.395 1.304-7.074 3.051-9.954 3.68-6.061-.3-10.307-3-14.613-1.08-1.723-4.262-3.143-6.381-3.01-6.293.395-12.64 1.19-18.758 2.683-4.633 1.13-8.053.045-11.03-3.228 11.741-5.625 23.242-11.01 34.744-16.396 10.098-2.526 20.18-5.119 30.306-7.533 2.548-.607 5.233-.641 8.47-.644.46 2.52.79 4.919.067 6.941-2.376 6.649-5.174 13.145-7.697 19.743-.36.943-.093 2.127-.117 3.2"/><path fill="#34353b" d="M456.787 477.951c-11.327 5.727-22.828 11.113-34.883 16.893-6.997 4.032-13.439 7.668-20.249 11.126-7.59-2.659-13.57.452-18.688 4.796-7.073 6-13.385 12.893-20.38 18.994-3.054 2.665-6.992 4.316-10.53 6.427 5.963-9.164 11.423-18.707 18.003-27.404 10.13-13.389 21.716-25.635 36.348-34.144 7.953-4.625 17.038-6.012 26.41-3.383 6.693 1.878 13.569 3.103 20.339 4.721 1.212.29 2.306 1.075 3.63 1.974"/><path fill="#1b1c21" d="M351.648 536.276c3.947-2.2 7.885-3.851 10.94-6.516 6.994-6.101 13.306-12.993 20.379-18.994 5.119-4.344 11.098-7.455 18.505-4.529-4.966 4.338-10.277 8.038-15.24 12.157-17.486 14.514-33.686 30.341-48.408 47.688-2.535 2.987-5.915 5.256-8.904 7.858.907-2.064 1.568-4.284 2.762-6.166 5.388-8.492 10.95-16.873 16.379-25.34.591-.922.725-2.138 1.176-3.937.168-.977.232-1.233.296-1.49.257-.061.496-.168.805-.376.36-.125.63-.196 1.31-.355"/><path fill="#34353b" d="M488.28 499.82c-.265-.893-.532-2.077-.172-3.02 2.523-6.598 5.321-13.094 7.697-19.743.723-2.022.394-4.42.373-7.01 1.902-.888 3.978-1.412 6.422-1.985 1.757-.044 3.146-.04 4.95-.047.351.433.287.877.133 1.645-2.005 3.377-3.922 6.428-5.945 9.822-3.559 5.57-7.014 10.796-10.465 16.025-.907 1.374-1.803 2.755-2.993 4.313"/><path fill="#61697a" d="M379.195 489.286a57 57 0 0 1 2.163-2.128l.882.65-3.672 5.606-1.126-.496c.522-1.125 1.044-2.25 1.753-3.632M375.26 498.715c-.31-.602-.436-1.338-.487-2.079-.003-.045.584-.131.896-.198-.069.714-.138 1.428-.408 2.277M383.494 485.498c-.026.011.027-.01 0 0"/><path fill="#4aa9f3" d="M720.14 594.14c-5.823-9.081-11.469-17.856-17.097-26.642-.799-1.245-1.513-2.545-2.41-4.165 1.085.337 2.818.708 3.468 1.752 7.053 11.346 13.936 22.797 20.889 34.594-1.54-1.495-3.102-3.366-4.85-5.539M724.973 600.293c.755.346 1.533 1.006 2.31 1.665-.559.038-1.117.075-1.911.004-.283-.524-.33-.94-.399-1.669"/><path fill="#6d7c99" d="M406.481 449.479c.02-.009-.02.008 0 0"/><path fill="#0d0e12" d="M328.644 574.133c3.265-2.795 6.645-5.064 9.18-8.051 14.722-17.347 30.922-33.174 48.409-47.688 4.962-4.12 10.273-7.819 15.607-11.979 6.625-3.903 13.067-7.54 19.823-11.33 3.532 2.877 6.952 3.963 11.585 2.832 6.117-1.493 12.465-2.288 18.758-2.683 2.119-.133 5.301 1.287 6.382 3.01 2.699 4.306 6.679 8.552 3 14.613-1.748 2.88-2.316 6.559-3.052 9.954-2.392 11.032-7.617 20.63-13.792 29.986-6.554 9.932-12.024 20.573-18.35 30.665-5.724 9.132-11.97 17.937-17.974 26.895-1.944 2.902-4.062 5.715-5.73 8.772-8.1 14.853-18.711 27.488-33.77 35.45-5.862 3.1-12.831 5.187-19.43 5.598-15.49.964-31.114 2.94-46.55-.997-8.389-2.14-10.513-4.72-8.079-13.196 2.972-10.349 7.052-20.378 10.569-30.574.75-2.178 1.141-4.48 1.667-7.136 2.944-5.323 5.812-10.303 8.92-15.127 4.085-6.338 8.358-12.553 12.827-19.014"/><path fill="#61697a" d="M366.099 673.918c-1.965.443-3.65.779-5.335 1.114l-.164-.743c1.883-.544 3.764-1.093 5.65-1.624.137-.04.31.044.466.07-.112.358-.225.717-.617 1.183"/><path fill="#4e5056" d="M349.333 537.119c.136.145.072.401-.147 1.024-.122-.06-.088-.486.147-1.024"/><path fill="#4aa9f3" d="M605.52 594.483c.006.021-.007-.021 0 0"/><path fill="#6d7c99" d="M266.591 668.99c-.002.069-.22-.005-.22-.005s.222-.064.22.005"/><path fill="#2d74c2" d="M585.759 553.178c.088-.188.256-.289.424-.389-.115.16-.23.318-.424.389"/></svg>